<mxfile host="app.diagrams.net" modified="2020-12-29T01:32:00.338Z" agent="5.0 (Windows NT 10.0; WOW64) AppleWebKit/537.36 (KHTML, like Gecko) Chrome/87.0.4280.88 Safari/537.36" etag="eYdr0bniiGImosLen_i4" version="14.1.2" type="github" pages="5">
  <diagram id="5n8l3ZLHpoGLfRwFyaVd" name="Page-4">
    <mxGraphModel dx="1038" dy="580" grid="1" gridSize="10" guides="1" tooltips="1" connect="1" arrows="1" fold="1" page="1" pageScale="1" pageWidth="827" pageHeight="1169" math="0" shadow="0">
      <root>
        <mxCell id="q9RjHbkH-S5PkvOiDGuQ-0" />
        <mxCell id="q9RjHbkH-S5PkvOiDGuQ-1" parent="q9RjHbkH-S5PkvOiDGuQ-0" />
        <mxCell id="q9RjHbkH-S5PkvOiDGuQ-4" value="" style="edgeStyle=orthogonalEdgeStyle;rounded=1;sketch=0;orthogonalLoop=1;jettySize=auto;html=1;strokeColor=#457B9D;fillColor=#A8DADC;fontColor=#1D3557;" parent="q9RjHbkH-S5PkvOiDGuQ-1" source="q9RjHbkH-S5PkvOiDGuQ-2" target="q9RjHbkH-S5PkvOiDGuQ-3" edge="1">
          <mxGeometry relative="1" as="geometry" />
        </mxCell>
        <mxCell id="q9RjHbkH-S5PkvOiDGuQ-2" value="系统1" style="rounded=1;whiteSpace=wrap;html=1;sketch=0;strokeColor=#6c8ebf;fillColor=#dae8fc;gradientColor=#7ea6e0;" parent="q9RjHbkH-S5PkvOiDGuQ-1" vertex="1">
          <mxGeometry x="80" y="250" width="120" height="60" as="geometry" />
        </mxCell>
        <mxCell id="q9RjHbkH-S5PkvOiDGuQ-3" value="应用2" style="rounded=1;whiteSpace=wrap;html=1;sketch=0;strokeColor=#457B9D;fillColor=#A8DADC;fontColor=#1D3557;" parent="q9RjHbkH-S5PkvOiDGuQ-1" vertex="1">
          <mxGeometry x="270" y="255" width="120" height="50" as="geometry" />
        </mxCell>
        <mxCell id="q9RjHbkH-S5PkvOiDGuQ-5" value="应用1" style="rounded=1;whiteSpace=wrap;html=1;sketch=0;strokeColor=#457B9D;fillColor=#A8DADC;fontColor=#1D3557;" parent="q9RjHbkH-S5PkvOiDGuQ-1" vertex="1">
          <mxGeometry x="270" y="180" width="120" height="50" as="geometry" />
        </mxCell>
        <mxCell id="q9RjHbkH-S5PkvOiDGuQ-6" value="应用n" style="rounded=1;whiteSpace=wrap;html=1;sketch=0;strokeColor=#457B9D;fillColor=#A8DADC;fontColor=#1D3557;" parent="q9RjHbkH-S5PkvOiDGuQ-1" vertex="1">
          <mxGeometry x="270" y="340" width="120" height="50" as="geometry" />
        </mxCell>
        <mxCell id="q9RjHbkH-S5PkvOiDGuQ-7" value="服务1" style="rounded=1;whiteSpace=wrap;html=1;sketch=0;strokeColor=#36393d;fillColor=#ffcccc;" parent="q9RjHbkH-S5PkvOiDGuQ-1" vertex="1">
          <mxGeometry x="450" y="150" width="110" height="40" as="geometry" />
        </mxCell>
        <mxCell id="q9RjHbkH-S5PkvOiDGuQ-8" value="服务2" style="rounded=1;whiteSpace=wrap;html=1;sketch=0;strokeColor=#36393d;fillColor=#ffcccc;" parent="q9RjHbkH-S5PkvOiDGuQ-1" vertex="1">
          <mxGeometry x="450" y="210" width="110" height="40" as="geometry" />
        </mxCell>
        <mxCell id="q9RjHbkH-S5PkvOiDGuQ-9" value="" style="endArrow=classic;html=1;strokeColor=#457B9D;fillColor=#A8DADC;fontColor=#1D3557;entryX=0;entryY=1;entryDx=0;entryDy=0;exitX=1;exitY=0.5;exitDx=0;exitDy=0;" parent="q9RjHbkH-S5PkvOiDGuQ-1" source="q9RjHbkH-S5PkvOiDGuQ-2" target="q9RjHbkH-S5PkvOiDGuQ-5" edge="1">
          <mxGeometry width="50" height="50" relative="1" as="geometry">
            <mxPoint x="210" y="280" as="sourcePoint" />
            <mxPoint x="260" y="250" as="targetPoint" />
          </mxGeometry>
        </mxCell>
        <mxCell id="q9RjHbkH-S5PkvOiDGuQ-10" value="" style="endArrow=classic;html=1;strokeColor=#457B9D;fillColor=#A8DADC;fontColor=#1D3557;entryX=0;entryY=0.25;entryDx=0;entryDy=0;" parent="q9RjHbkH-S5PkvOiDGuQ-1" target="q9RjHbkH-S5PkvOiDGuQ-6" edge="1">
          <mxGeometry width="50" height="50" relative="1" as="geometry">
            <mxPoint x="200" y="280" as="sourcePoint" />
            <mxPoint x="280" y="270" as="targetPoint" />
          </mxGeometry>
        </mxCell>
        <mxCell id="q9RjHbkH-S5PkvOiDGuQ-11" value="&lt;b&gt;...&lt;/b&gt;" style="text;html=1;align=center;verticalAlign=middle;resizable=0;points=[];autosize=1;fontColor=#1D3557;" parent="q9RjHbkH-S5PkvOiDGuQ-1" vertex="1">
          <mxGeometry x="305" y="310" width="30" height="20" as="geometry" />
        </mxCell>
        <mxCell id="q9RjHbkH-S5PkvOiDGuQ-12" value="" style="endArrow=classic;html=1;strokeColor=#457B9D;fillColor=#A8DADC;fontColor=#1D3557;entryX=0;entryY=0.75;entryDx=0;entryDy=0;entryPerimeter=0;" parent="q9RjHbkH-S5PkvOiDGuQ-1" target="q9RjHbkH-S5PkvOiDGuQ-7" edge="1">
          <mxGeometry width="50" height="50" relative="1" as="geometry">
            <mxPoint x="390" y="210" as="sourcePoint" />
            <mxPoint x="440" y="180" as="targetPoint" />
          </mxGeometry>
        </mxCell>
        <mxCell id="q9RjHbkH-S5PkvOiDGuQ-13" value="" style="endArrow=classic;html=1;strokeColor=#457B9D;fillColor=#A8DADC;fontColor=#1D3557;entryX=0;entryY=0.5;entryDx=0;entryDy=0;" parent="q9RjHbkH-S5PkvOiDGuQ-1" target="q9RjHbkH-S5PkvOiDGuQ-8" edge="1">
          <mxGeometry width="50" height="50" relative="1" as="geometry">
            <mxPoint x="389" y="210" as="sourcePoint" />
            <mxPoint x="450" y="250" as="targetPoint" />
          </mxGeometry>
        </mxCell>
        <mxCell id="q9RjHbkH-S5PkvOiDGuQ-14" value="服务n" style="rounded=1;whiteSpace=wrap;html=1;sketch=0;strokeColor=#36393d;fillColor=#ffcccc;" parent="q9RjHbkH-S5PkvOiDGuQ-1" vertex="1">
          <mxGeometry x="450" y="280" width="110" height="40" as="geometry" />
        </mxCell>
        <mxCell id="q9RjHbkH-S5PkvOiDGuQ-15" value="&lt;b&gt;...&lt;/b&gt;" style="text;html=1;align=center;verticalAlign=middle;resizable=0;points=[];autosize=1;fontColor=#1D3557;" parent="q9RjHbkH-S5PkvOiDGuQ-1" vertex="1">
          <mxGeometry x="490" y="250" width="30" height="20" as="geometry" />
        </mxCell>
        <mxCell id="q9RjHbkH-S5PkvOiDGuQ-17" value="" style="endArrow=classic;html=1;strokeColor=#457B9D;fillColor=#A8DADC;fontColor=#1D3557;entryX=0;entryY=0.25;entryDx=0;entryDy=0;" parent="q9RjHbkH-S5PkvOiDGuQ-1" target="q9RjHbkH-S5PkvOiDGuQ-14" edge="1">
          <mxGeometry width="50" height="50" relative="1" as="geometry">
            <mxPoint x="391" y="210" as="sourcePoint" />
            <mxPoint x="440" y="250" as="targetPoint" />
          </mxGeometry>
        </mxCell>
        <mxCell id="q9RjHbkH-S5PkvOiDGuQ-19" value="区域" style="rounded=1;whiteSpace=wrap;html=1;sketch=0;strokeColor=#457B9D;fillColor=#A8DADC;fontColor=#1D3557;" parent="q9RjHbkH-S5PkvOiDGuQ-1" vertex="1">
          <mxGeometry x="540" y="20" width="110" height="40" as="geometry" />
        </mxCell>
        <mxCell id="TrWBdxYN-PUu_PPXrinb-0" value="" style="edgeStyle=orthogonalEdgeStyle;rounded=1;sketch=0;orthogonalLoop=1;jettySize=auto;html=1;strokeColor=#457B9D;fillColor=#A8DADC;fontColor=#1D3557;" parent="q9RjHbkH-S5PkvOiDGuQ-1" source="TrWBdxYN-PUu_PPXrinb-1" target="TrWBdxYN-PUu_PPXrinb-2" edge="1">
          <mxGeometry relative="1" as="geometry" />
        </mxCell>
        <mxCell id="TrWBdxYN-PUu_PPXrinb-1" value="系统2" style="rounded=1;whiteSpace=wrap;html=1;sketch=0;strokeColor=#6c8ebf;fillColor=#dae8fc;gradientColor=#7ea6e0;" parent="q9RjHbkH-S5PkvOiDGuQ-1" vertex="1">
          <mxGeometry x="80" y="500" width="120" height="60" as="geometry" />
        </mxCell>
        <mxCell id="TrWBdxYN-PUu_PPXrinb-2" value="应用2" style="rounded=1;whiteSpace=wrap;html=1;sketch=0;strokeColor=#457B9D;fillColor=#A8DADC;fontColor=#1D3557;" parent="q9RjHbkH-S5PkvOiDGuQ-1" vertex="1">
          <mxGeometry x="270" y="505" width="120" height="50" as="geometry" />
        </mxCell>
        <mxCell id="TrWBdxYN-PUu_PPXrinb-3" value="应用1" style="rounded=1;whiteSpace=wrap;html=1;sketch=0;strokeColor=#457B9D;fillColor=#A8DADC;fontColor=#1D3557;" parent="q9RjHbkH-S5PkvOiDGuQ-1" vertex="1">
          <mxGeometry x="270" y="430" width="120" height="50" as="geometry" />
        </mxCell>
        <mxCell id="TrWBdxYN-PUu_PPXrinb-4" value="应用n" style="rounded=1;whiteSpace=wrap;html=1;sketch=0;strokeColor=#457B9D;fillColor=#A8DADC;fontColor=#1D3557;" parent="q9RjHbkH-S5PkvOiDGuQ-1" vertex="1">
          <mxGeometry x="270" y="590" width="120" height="50" as="geometry" />
        </mxCell>
        <mxCell id="TrWBdxYN-PUu_PPXrinb-5" value="服务1" style="rounded=1;whiteSpace=wrap;html=1;sketch=0;strokeColor=#36393d;fillColor=#ffcccc;" parent="q9RjHbkH-S5PkvOiDGuQ-1" vertex="1">
          <mxGeometry x="450" y="400" width="110" height="40" as="geometry" />
        </mxCell>
        <mxCell id="TrWBdxYN-PUu_PPXrinb-6" value="服务2" style="rounded=1;whiteSpace=wrap;html=1;sketch=0;strokeColor=#36393d;fillColor=#ffcccc;" parent="q9RjHbkH-S5PkvOiDGuQ-1" vertex="1">
          <mxGeometry x="450" y="460" width="110" height="40" as="geometry" />
        </mxCell>
        <mxCell id="TrWBdxYN-PUu_PPXrinb-7" value="" style="endArrow=classic;html=1;strokeColor=#457B9D;fillColor=#A8DADC;fontColor=#1D3557;entryX=0;entryY=1;entryDx=0;entryDy=0;exitX=1;exitY=0.5;exitDx=0;exitDy=0;" parent="q9RjHbkH-S5PkvOiDGuQ-1" source="TrWBdxYN-PUu_PPXrinb-1" target="TrWBdxYN-PUu_PPXrinb-3" edge="1">
          <mxGeometry width="50" height="50" relative="1" as="geometry">
            <mxPoint x="210" y="530" as="sourcePoint" />
            <mxPoint x="260" y="500" as="targetPoint" />
          </mxGeometry>
        </mxCell>
        <mxCell id="TrWBdxYN-PUu_PPXrinb-8" value="" style="endArrow=classic;html=1;strokeColor=#457B9D;fillColor=#A8DADC;fontColor=#1D3557;entryX=0;entryY=0.25;entryDx=0;entryDy=0;" parent="q9RjHbkH-S5PkvOiDGuQ-1" target="TrWBdxYN-PUu_PPXrinb-4" edge="1">
          <mxGeometry width="50" height="50" relative="1" as="geometry">
            <mxPoint x="200" y="530" as="sourcePoint" />
            <mxPoint x="280" y="520" as="targetPoint" />
          </mxGeometry>
        </mxCell>
        <mxCell id="TrWBdxYN-PUu_PPXrinb-9" value="&lt;b&gt;...&lt;/b&gt;" style="text;html=1;align=center;verticalAlign=middle;resizable=0;points=[];autosize=1;fontColor=#1D3557;" parent="q9RjHbkH-S5PkvOiDGuQ-1" vertex="1">
          <mxGeometry x="305" y="560" width="30" height="20" as="geometry" />
        </mxCell>
        <mxCell id="TrWBdxYN-PUu_PPXrinb-10" value="" style="endArrow=classic;html=1;strokeColor=#457B9D;fillColor=#A8DADC;fontColor=#1D3557;exitX=1;exitY=0.5;exitDx=0;exitDy=0;entryX=0;entryY=0.75;entryDx=0;entryDy=0;entryPerimeter=0;" parent="q9RjHbkH-S5PkvOiDGuQ-1" source="TrWBdxYN-PUu_PPXrinb-3" target="TrWBdxYN-PUu_PPXrinb-5" edge="1">
          <mxGeometry width="50" height="50" relative="1" as="geometry">
            <mxPoint x="420" y="480" as="sourcePoint" />
            <mxPoint x="440" y="430" as="targetPoint" />
          </mxGeometry>
        </mxCell>
        <mxCell id="TrWBdxYN-PUu_PPXrinb-11" value="" style="endArrow=classic;html=1;strokeColor=#457B9D;fillColor=#A8DADC;fontColor=#1D3557;entryX=0;entryY=0.5;entryDx=0;entryDy=0;" parent="q9RjHbkH-S5PkvOiDGuQ-1" target="TrWBdxYN-PUu_PPXrinb-6" edge="1">
          <mxGeometry width="50" height="50" relative="1" as="geometry">
            <mxPoint x="389" y="450" as="sourcePoint" />
            <mxPoint x="450" y="500" as="targetPoint" />
          </mxGeometry>
        </mxCell>
        <mxCell id="TrWBdxYN-PUu_PPXrinb-12" value="服务n" style="rounded=1;whiteSpace=wrap;html=1;sketch=0;strokeColor=#36393d;fillColor=#ffcccc;" parent="q9RjHbkH-S5PkvOiDGuQ-1" vertex="1">
          <mxGeometry x="450" y="530" width="110" height="40" as="geometry" />
        </mxCell>
        <mxCell id="TrWBdxYN-PUu_PPXrinb-13" value="&lt;b&gt;...&lt;/b&gt;" style="text;html=1;align=center;verticalAlign=middle;resizable=0;points=[];autosize=1;fontColor=#1D3557;" parent="q9RjHbkH-S5PkvOiDGuQ-1" vertex="1">
          <mxGeometry x="490" y="500" width="30" height="20" as="geometry" />
        </mxCell>
        <mxCell id="TrWBdxYN-PUu_PPXrinb-14" value="" style="endArrow=classic;html=1;strokeColor=#457B9D;fillColor=#A8DADC;fontColor=#1D3557;entryX=0;entryY=0.25;entryDx=0;entryDy=0;" parent="q9RjHbkH-S5PkvOiDGuQ-1" target="TrWBdxYN-PUu_PPXrinb-12" edge="1">
          <mxGeometry width="50" height="50" relative="1" as="geometry">
            <mxPoint x="391" y="450" as="sourcePoint" />
            <mxPoint x="440" y="500" as="targetPoint" />
          </mxGeometry>
        </mxCell>
      </root>
    </mxGraphModel>
  </diagram>
  <diagram id="Q-_7Xz2KOI4kapPG7E8D" name="Page-2">
    <mxGraphModel dx="1038" dy="580" grid="1" gridSize="10" guides="1" tooltips="1" connect="1" arrows="1" fold="1" page="1" pageScale="1" pageWidth="827" pageHeight="1169" math="0" shadow="0">
      <root>
        <mxCell id="Y1dotid1MQkd74-I9Rub-0" />
        <mxCell id="Y1dotid1MQkd74-I9Rub-1" parent="Y1dotid1MQkd74-I9Rub-0" />
        <mxCell id="6-R-pUapk2K3knvyRREx-0" value="&lt;div style=&quot;box-sizing: border-box ; width: 100% ; background: #e4e4e4 ; padding: 2px&quot;&gt;系统表 t_system&lt;/div&gt;&lt;table style=&quot;width: 100% ; font-size: 1em&quot; cellpadding=&quot;2&quot; cellspacing=&quot;0&quot;&gt;&lt;tbody&gt;&lt;tr&gt;&lt;td&gt;PK&lt;/td&gt;&lt;td&gt;id:&amp;nbsp; &amp;nbsp; &amp;nbsp; &amp;nbsp; &amp;nbsp; &amp;nbsp; &amp;nbsp; &amp;nbsp; int(11)&lt;/td&gt;&lt;/tr&gt;&lt;tr&gt;&lt;td&gt;&lt;br&gt;&lt;/td&gt;&lt;td&gt;系统名称&amp;nbsp; &amp;nbsp; &amp;nbsp; varchar(60)&lt;/td&gt;&lt;/tr&gt;&lt;tr&gt;&lt;td&gt;&lt;/td&gt;&lt;td&gt;系统描述&amp;nbsp; &amp;nbsp; &amp;nbsp; varchar(60)&lt;br&gt;所属机构&amp;nbsp; &amp;nbsp; &amp;nbsp; varchar(60)&lt;br&gt;供应商&amp;nbsp; &amp;nbsp; &amp;nbsp; &amp;nbsp; &amp;nbsp;varchar(60)&lt;br&gt;系统负责人&amp;nbsp; varchar(60)&lt;br&gt;乙方负责人&amp;nbsp;&amp;nbsp;varchar(60)&lt;br&gt;&lt;br&gt;&lt;br&gt;&lt;/td&gt;&lt;/tr&gt;&lt;/tbody&gt;&lt;/table&gt;" style="verticalAlign=top;align=left;overflow=fill;html=1;fillColor=#A8DADC;strokeColor=#457B9D;fontColor=#1D3557;fontStyle=1" parent="Y1dotid1MQkd74-I9Rub-1" vertex="1">
          <mxGeometry x="160" y="280" width="180" height="140" as="geometry" />
        </mxCell>
        <mxCell id="6-R-pUapk2K3knvyRREx-1" value="&lt;div style=&quot;box-sizing: border-box ; width: 100% ; background: #e4e4e4 ; padding: 2px&quot;&gt;区域表 t_area&lt;/div&gt;&lt;table style=&quot;width: 100% ; font-size: 1em&quot; cellpadding=&quot;2&quot; cellspacing=&quot;0&quot;&gt;&lt;tbody&gt;&lt;tr&gt;&lt;td&gt;PK&lt;/td&gt;&lt;td&gt;id:int(11)&lt;/td&gt;&lt;/tr&gt;&lt;tr&gt;&lt;td&gt;&lt;br&gt;&lt;/td&gt;&lt;td&gt;区域名称 varchar(60)&lt;/td&gt;&lt;/tr&gt;&lt;tr&gt;&lt;td&gt;&lt;/td&gt;&lt;td&gt;&lt;br&gt;&lt;br&gt;&lt;br&gt;&lt;/td&gt;&lt;/tr&gt;&lt;/tbody&gt;&lt;/table&gt;" style="verticalAlign=top;align=left;overflow=fill;html=1;fillColor=#A8DADC;strokeColor=#457B9D;fontColor=#1D3557;fontStyle=1" parent="Y1dotid1MQkd74-I9Rub-1" vertex="1">
          <mxGeometry x="170" y="700" width="180" height="140" as="geometry" />
        </mxCell>
        <mxCell id="6-R-pUapk2K3knvyRREx-3" value="&lt;div style=&quot;box-sizing: border-box ; width: 100% ; background: #e4e4e4 ; padding: 2px&quot;&gt;应用表 t_application&lt;/div&gt;&lt;table style=&quot;width: 100% ; font-size: 1em&quot; cellpadding=&quot;2&quot; cellspacing=&quot;0&quot;&gt;&lt;tbody&gt;&lt;tr&gt;&lt;td&gt;PK&lt;/td&gt;&lt;td&gt;id:int(11)&lt;/td&gt;&lt;/tr&gt;&lt;tr&gt;&lt;td&gt;&lt;br&gt;&lt;/td&gt;&lt;td&gt;所属系统&amp;nbsp;&amp;nbsp;varchar(60)&lt;br&gt;应用名称&amp;nbsp;&amp;nbsp;&amp;nbsp;varchar(60)&lt;/td&gt;&lt;/tr&gt;&lt;tr&gt;&lt;td&gt;&lt;br&gt;&lt;/td&gt;&lt;td&gt;应用描述&amp;nbsp; varchar(60)&lt;br&gt;负责人&amp;nbsp; &amp;nbsp; &amp;nbsp;varchar(60)&lt;br&gt;appId&amp;nbsp; &amp;nbsp; &amp;nbsp; varchar(60)&lt;br&gt;appSecret&amp;nbsp;varchar(60)&lt;br&gt;区域id&amp;nbsp; &amp;nbsp; &amp;nbsp;varchar(60)&lt;br&gt;ip范围&amp;nbsp; &amp;nbsp; &amp;nbsp;varchar(60)&lt;br&gt;&lt;br&gt;&lt;br&gt;&lt;/td&gt;&lt;/tr&gt;&lt;/tbody&gt;&lt;/table&gt;" style="verticalAlign=top;align=left;overflow=fill;html=1;fillColor=#A8DADC;strokeColor=#457B9D;fontColor=#1D3557;fontStyle=1" parent="Y1dotid1MQkd74-I9Rub-1" vertex="1">
          <mxGeometry x="170" y="480" width="180" height="170" as="geometry" />
        </mxCell>
        <mxCell id="6-R-pUapk2K3knvyRREx-5" value="&lt;div style=&quot;box-sizing: border-box ; width: 100% ; background: #e4e4e4 ; padding: 2px&quot;&gt;服务表 t_service&lt;/div&gt;&lt;table style=&quot;width: 100% ; font-size: 1em&quot; cellpadding=&quot;2&quot; cellspacing=&quot;0&quot;&gt;&lt;tbody&gt;&lt;tr&gt;&lt;td&gt;PK&lt;/td&gt;&lt;td&gt;id:int(11)&lt;/td&gt;&lt;/tr&gt;&lt;tr&gt;&lt;td&gt;&lt;br&gt;&lt;/td&gt;&lt;td&gt;所属应用&amp;nbsp;varchar(60)&lt;/td&gt;&lt;/tr&gt;&lt;tr&gt;&lt;td&gt;&lt;br&gt;&lt;/td&gt;&lt;td&gt;服务名称&amp;nbsp;varchar(60)&lt;br&gt;服务描述&amp;nbsp;varchar(60)&lt;br&gt;服务状态 char(1)&lt;br&gt;服务类型 char(1)&lt;br&gt;发布方向 char(1)&lt;br&gt;可见性&amp;nbsp; &amp;nbsp; &amp;nbsp;char(1)&lt;br&gt;ip地址&amp;nbsp; &amp;nbsp; &amp;nbsp; varchar(60)&lt;br&gt;端口&amp;nbsp; &amp;nbsp; &amp;nbsp; &amp;nbsp; &amp;nbsp;varchar(60)&lt;br&gt;服务域名&amp;nbsp; varchar(60)&lt;br&gt;API地址&amp;nbsp; &amp;nbsp;varchar(60)&lt;br&gt;是否启用虚拟服务&amp;nbsp;char(1)&lt;br&gt;虚拟ip&amp;nbsp; &amp;nbsp; &amp;nbsp; &amp;nbsp; &amp;nbsp; &amp;nbsp; &amp;nbsp;varchar(60)&lt;br&gt;健康检查方法&amp;nbsp;varchar(60)&lt;br&gt;是否授权&amp;nbsp; &amp;nbsp; &amp;nbsp; &amp;nbsp; &amp;nbsp;varchar(60)&lt;br&gt;是否启用七层协议白名单&amp;nbsp;varchar(60)&lt;br&gt;七层协议白名单内容&amp;nbsp;varchar(60)&lt;br&gt;是否启用URI白名单&amp;nbsp;&amp;nbsp;char(1)&lt;br&gt;拒绝动作&amp;nbsp; &amp;nbsp; &amp;nbsp; &amp;nbsp; &amp;nbsp; &amp;nbsp; &amp;nbsp; &amp;nbsp; &amp;nbsp; &amp;nbsp;varchar(60)&lt;br&gt;新建连接阈值&amp;nbsp; &amp;nbsp; &amp;nbsp; &amp;nbsp; &amp;nbsp; &amp;nbsp;&amp;nbsp;int(11)&amp;nbsp;&lt;br&gt;并发连接阈值&amp;nbsp; &amp;nbsp; &amp;nbsp; &amp;nbsp; &amp;nbsp; &amp;nbsp; int(11)&lt;br&gt;允许授权应用列表&amp;nbsp; &amp;nbsp; &amp;nbsp;varchar(200)&lt;br&gt;操作状态&amp;nbsp; &amp;nbsp; &amp;nbsp; &amp;nbsp; &amp;nbsp; &amp;nbsp; &amp;nbsp; &amp;nbsp; &amp;nbsp; &amp;nbsp;char(1)&lt;br&gt;&lt;/td&gt;&lt;/tr&gt;&lt;/tbody&gt;&lt;/table&gt;" style="verticalAlign=top;align=left;overflow=fill;html=1;fillColor=#A8DADC;strokeColor=#457B9D;fontColor=#1D3557;fontStyle=1" parent="Y1dotid1MQkd74-I9Rub-1" vertex="1">
          <mxGeometry x="490" y="340" width="280" height="400" as="geometry" />
        </mxCell>
        <mxCell id="6-R-pUapk2K3knvyRREx-9" value="Relation" style="endArrow=open;html=1;endSize=12;startArrow=diamondThin;startSize=14;startFill=0;edgeStyle=orthogonalEdgeStyle;strokeColor=#457B9D;fillColor=#A8DADC;fontColor=#1D3557;exitX=-0.016;exitY=0.204;exitDx=0;exitDy=0;exitPerimeter=0;fontStyle=1;entryX=0;entryY=0.25;entryDx=0;entryDy=0;" parent="Y1dotid1MQkd74-I9Rub-1" source="6-R-pUapk2K3knvyRREx-0" target="6-R-pUapk2K3knvyRREx-3" edge="1">
          <mxGeometry relative="1" as="geometry">
            <mxPoint x="130" y="310" as="sourcePoint" />
            <mxPoint x="190" y="540" as="targetPoint" />
            <Array as="points">
              <mxPoint x="137" y="310" />
              <mxPoint x="90" y="310" />
              <mxPoint x="90" y="523" />
            </Array>
          </mxGeometry>
        </mxCell>
        <mxCell id="6-R-pUapk2K3knvyRREx-10" value="0..n" style="edgeLabel;resizable=0;html=1;align=left;verticalAlign=top;fontStyle=1" parent="6-R-pUapk2K3knvyRREx-9" connectable="0" vertex="1">
          <mxGeometry x="-1" relative="1" as="geometry" />
        </mxCell>
        <mxCell id="6-R-pUapk2K3knvyRREx-11" value="1" style="edgeLabel;resizable=0;html=1;align=right;verticalAlign=top;fontStyle=1" parent="6-R-pUapk2K3knvyRREx-9" connectable="0" vertex="1">
          <mxGeometry x="1" relative="1" as="geometry" />
        </mxCell>
        <mxCell id="6-R-pUapk2K3knvyRREx-12" value="Relation" style="endArrow=open;html=1;endSize=12;startArrow=diamondThin;startSize=14;startFill=0;edgeStyle=orthogonalEdgeStyle;strokeColor=#457B9D;fillColor=#A8DADC;fontColor=#1D3557;entryX=1;entryY=0.75;entryDx=0;entryDy=0;exitX=1;exitY=0.25;exitDx=0;exitDy=0;fontStyle=1" parent="Y1dotid1MQkd74-I9Rub-1" source="6-R-pUapk2K3knvyRREx-1" target="6-R-pUapk2K3knvyRREx-3" edge="1">
          <mxGeometry relative="1" as="geometry">
            <mxPoint x="460" y="310" as="sourcePoint" />
            <mxPoint x="390" y="650" as="targetPoint" />
            <Array as="points">
              <mxPoint x="350" y="730" />
              <mxPoint x="390" y="730" />
              <mxPoint x="390" y="608" />
            </Array>
          </mxGeometry>
        </mxCell>
        <mxCell id="6-R-pUapk2K3knvyRREx-13" value="0..n" style="edgeLabel;resizable=0;html=1;align=left;verticalAlign=top;fontStyle=1" parent="6-R-pUapk2K3knvyRREx-12" connectable="0" vertex="1">
          <mxGeometry x="-1" relative="1" as="geometry" />
        </mxCell>
        <mxCell id="6-R-pUapk2K3knvyRREx-14" value="1" style="edgeLabel;resizable=0;html=1;align=right;verticalAlign=top;fontStyle=1" parent="6-R-pUapk2K3knvyRREx-12" connectable="0" vertex="1">
          <mxGeometry x="1" relative="1" as="geometry" />
        </mxCell>
        <mxCell id="6-R-pUapk2K3knvyRREx-15" value="Relation" style="endArrow=open;html=1;endSize=12;startArrow=diamondThin;startSize=14;startFill=0;edgeStyle=orthogonalEdgeStyle;strokeColor=#457B9D;fillColor=#A8DADC;fontColor=#1D3557;exitX=1;exitY=0.176;exitDx=0;exitDy=0;exitPerimeter=0;fontStyle=1" parent="Y1dotid1MQkd74-I9Rub-1" source="6-R-pUapk2K3knvyRREx-3" edge="1">
          <mxGeometry x="-0.7636" y="20" relative="1" as="geometry">
            <mxPoint x="334" y="380" as="sourcePoint" />
            <mxPoint x="494" y="380" as="targetPoint" />
            <Array as="points">
              <mxPoint x="430" y="510" />
              <mxPoint x="430" y="380" />
            </Array>
            <mxPoint as="offset" />
          </mxGeometry>
        </mxCell>
        <mxCell id="6-R-pUapk2K3knvyRREx-16" value="0..n" style="edgeLabel;resizable=0;html=1;align=left;verticalAlign=top;fontStyle=1" parent="6-R-pUapk2K3knvyRREx-15" connectable="0" vertex="1">
          <mxGeometry x="-1" relative="1" as="geometry" />
        </mxCell>
        <mxCell id="6-R-pUapk2K3knvyRREx-17" value="1" style="edgeLabel;resizable=0;html=1;align=right;verticalAlign=top;fontStyle=1" parent="6-R-pUapk2K3knvyRREx-15" connectable="0" vertex="1">
          <mxGeometry x="1" relative="1" as="geometry" />
        </mxCell>
      </root>
    </mxGraphModel>
  </diagram>
  <diagram id="kVrd8d1KqpzGRnWW09Kk" name="Page-3">
    <mxGraphModel dx="1038" dy="580" grid="1" gridSize="10" guides="1" tooltips="1" connect="1" arrows="1" fold="1" page="1" pageScale="1" pageWidth="827" pageHeight="1169" math="0" shadow="0">
      <root>
        <mxCell id="Y9QoRLHYMl9kIcRqaVpS-0" />
        <mxCell id="Y9QoRLHYMl9kIcRqaVpS-1" parent="Y9QoRLHYMl9kIcRqaVpS-0" />
        <mxCell id="Y9QoRLHYMl9kIcRqaVpS-57" value="" style="rounded=0;whiteSpace=wrap;html=1;sketch=0;strokeColor=#666666;fillColor=#f5f5f5;gradientColor=#b3b3b3;" parent="Y9QoRLHYMl9kIcRqaVpS-1" vertex="1">
          <mxGeometry x="550" y="300" width="130" height="120" as="geometry" />
        </mxCell>
        <mxCell id="Y9QoRLHYMl9kIcRqaVpS-49" style="edgeStyle=orthogonalEdgeStyle;curved=0;rounded=1;sketch=0;orthogonalLoop=1;jettySize=auto;html=1;entryX=0.5;entryY=0;entryDx=0;entryDy=0;strokeColor=#457B9D;fillColor=#A8DADC;fontColor=#1D3557;" parent="Y9QoRLHYMl9kIcRqaVpS-1" source="Y9QoRLHYMl9kIcRqaVpS-4" target="Y9QoRLHYMl9kIcRqaVpS-42" edge="1">
          <mxGeometry relative="1" as="geometry" />
        </mxCell>
        <mxCell id="Y9QoRLHYMl9kIcRqaVpS-4" value="开始" style="ellipse;whiteSpace=wrap;html=1;rounded=0;sketch=0;strokeColor=#457B9D;fillColor=#A8DADC;fontColor=#1D3557;" parent="Y9QoRLHYMl9kIcRqaVpS-1" vertex="1">
          <mxGeometry x="27" y="60" width="86" height="40" as="geometry" />
        </mxCell>
        <mxCell id="Y9QoRLHYMl9kIcRqaVpS-5" value="1、新增主机" style="rounded=0;whiteSpace=wrap;html=1;sketch=0;strokeColor=#006EAF;fillColor=#1ba1e2;fontColor=#ffffff;" parent="Y9QoRLHYMl9kIcRqaVpS-1" vertex="1">
          <mxGeometry x="131.75" y="130" width="129.5" height="40" as="geometry" />
        </mxCell>
        <mxCell id="Y9QoRLHYMl9kIcRqaVpS-29" value="" style="edgeStyle=orthogonalEdgeStyle;curved=0;rounded=1;sketch=0;orthogonalLoop=1;jettySize=auto;html=1;strokeColor=#457B9D;fillColor=#A8DADC;fontColor=#1D3557;" parent="Y9QoRLHYMl9kIcRqaVpS-1" target="Y9QoRLHYMl9kIcRqaVpS-16" edge="1">
          <mxGeometry relative="1" as="geometry">
            <mxPoint x="410" y="250" as="sourcePoint" />
          </mxGeometry>
        </mxCell>
        <mxCell id="Y9QoRLHYMl9kIcRqaVpS-6" value="2、新增节点池" style="rounded=0;whiteSpace=wrap;html=1;sketch=0;strokeColor=#006EAF;fillColor=#1ba1e2;fontColor=#ffffff;" parent="Y9QoRLHYMl9kIcRqaVpS-1" vertex="1">
          <mxGeometry x="280.5" y="230" width="129.5" height="40" as="geometry" />
        </mxCell>
        <mxCell id="Y9QoRLHYMl9kIcRqaVpS-7" value="3、新增虚拟服务" style="rounded=0;whiteSpace=wrap;html=1;sketch=0;strokeColor=#006EAF;fillColor=#1ba1e2;fontColor=#ffffff;" parent="Y9QoRLHYMl9kIcRqaVpS-1" vertex="1">
          <mxGeometry x="280.5" y="320" width="129.5" height="40" as="geometry" />
        </mxCell>
        <mxCell id="Y9QoRLHYMl9kIcRqaVpS-25" style="edgeStyle=orthogonalEdgeStyle;curved=0;rounded=1;sketch=0;orthogonalLoop=1;jettySize=auto;html=1;exitX=0.5;exitY=1;exitDx=0;exitDy=0;entryX=0.5;entryY=0;entryDx=0;entryDy=0;strokeColor=#457B9D;fillColor=#A8DADC;fontColor=#1D3557;" parent="Y9QoRLHYMl9kIcRqaVpS-1" source="Y9QoRLHYMl9kIcRqaVpS-12" target="Y9QoRLHYMl9kIcRqaVpS-43" edge="1">
          <mxGeometry relative="1" as="geometry" />
        </mxCell>
        <mxCell id="Y9QoRLHYMl9kIcRqaVpS-28" style="edgeStyle=orthogonalEdgeStyle;curved=0;rounded=1;sketch=0;orthogonalLoop=1;jettySize=auto;html=1;exitX=1;exitY=0.5;exitDx=0;exitDy=0;entryX=0.5;entryY=0;entryDx=0;entryDy=0;strokeColor=#457B9D;fillColor=#A8DADC;fontColor=#1D3557;" parent="Y9QoRLHYMl9kIcRqaVpS-1" source="Y9QoRLHYMl9kIcRqaVpS-12" target="Y9QoRLHYMl9kIcRqaVpS-21" edge="1">
          <mxGeometry relative="1" as="geometry">
            <Array as="points">
              <mxPoint x="710" y="150" />
              <mxPoint x="710" y="490" />
            </Array>
          </mxGeometry>
        </mxCell>
        <mxCell id="Y9QoRLHYMl9kIcRqaVpS-12" value="是否成功" style="rhombus;whiteSpace=wrap;html=1;rounded=0;sketch=0;strokeColor=#d6b656;fillColor=#fff2cc;" parent="Y9QoRLHYMl9kIcRqaVpS-1" vertex="1">
          <mxGeometry x="280.5" y="120" width="130" height="60" as="geometry" />
        </mxCell>
        <mxCell id="Y9QoRLHYMl9kIcRqaVpS-13" value="" style="endArrow=classic;html=1;strokeColor=#457B9D;fillColor=#A8DADC;fontColor=#1D3557;exitX=1;exitY=0.5;exitDx=0;exitDy=0;entryX=0;entryY=0.5;entryDx=0;entryDy=0;" parent="Y9QoRLHYMl9kIcRqaVpS-1" source="Y9QoRLHYMl9kIcRqaVpS-5" target="Y9QoRLHYMl9kIcRqaVpS-12" edge="1">
          <mxGeometry width="50" height="50" relative="1" as="geometry">
            <mxPoint x="440" y="200" as="sourcePoint" />
            <mxPoint x="490" y="150" as="targetPoint" />
          </mxGeometry>
        </mxCell>
        <mxCell id="Y9QoRLHYMl9kIcRqaVpS-19" style="edgeStyle=orthogonalEdgeStyle;curved=0;rounded=1;sketch=0;orthogonalLoop=1;jettySize=auto;html=1;exitX=0.5;exitY=1;exitDx=0;exitDy=0;strokeColor=#457B9D;fillColor=#A8DADC;fontColor=#1D3557;entryX=0.5;entryY=0;entryDx=0;entryDy=0;" parent="Y9QoRLHYMl9kIcRqaVpS-1" source="Y9QoRLHYMl9kIcRqaVpS-14" target="Y9QoRLHYMl9kIcRqaVpS-20" edge="1">
          <mxGeometry relative="1" as="geometry">
            <mxPoint x="345" y="480" as="targetPoint" />
          </mxGeometry>
        </mxCell>
        <mxCell id="Y9QoRLHYMl9kIcRqaVpS-14" value="是否成功" style="rhombus;whiteSpace=wrap;html=1;rounded=0;sketch=0;strokeColor=#d6b656;fillColor=#fff2cc;" parent="Y9QoRLHYMl9kIcRqaVpS-1" vertex="1">
          <mxGeometry x="190" y="390" width="130" height="60" as="geometry" />
        </mxCell>
        <mxCell id="Y9QoRLHYMl9kIcRqaVpS-30" style="edgeStyle=orthogonalEdgeStyle;curved=0;rounded=1;sketch=0;orthogonalLoop=1;jettySize=auto;html=1;exitX=0.5;exitY=1;exitDx=0;exitDy=0;entryX=0.437;entryY=-0.085;entryDx=0;entryDy=0;strokeColor=#457B9D;fillColor=#A8DADC;fontColor=#1D3557;entryPerimeter=0;" parent="Y9QoRLHYMl9kIcRqaVpS-1" source="Y9QoRLHYMl9kIcRqaVpS-16" target="Y9QoRLHYMl9kIcRqaVpS-45" edge="1">
          <mxGeometry relative="1" as="geometry" />
        </mxCell>
        <mxCell id="Y9QoRLHYMl9kIcRqaVpS-32" style="edgeStyle=orthogonalEdgeStyle;curved=0;rounded=1;sketch=0;orthogonalLoop=1;jettySize=auto;html=1;exitX=1;exitY=0.5;exitDx=0;exitDy=0;strokeColor=#457B9D;fillColor=#A8DADC;fontColor=#1D3557;entryX=0.592;entryY=-0.105;entryDx=0;entryDy=0;entryPerimeter=0;" parent="Y9QoRLHYMl9kIcRqaVpS-1" source="Y9QoRLHYMl9kIcRqaVpS-16" target="Y9QoRLHYMl9kIcRqaVpS-33" edge="1">
          <mxGeometry relative="1" as="geometry">
            <mxPoint x="590" y="310" as="targetPoint" />
          </mxGeometry>
        </mxCell>
        <mxCell id="Y9QoRLHYMl9kIcRqaVpS-16" value="是否成功" style="rhombus;whiteSpace=wrap;html=1;rounded=0;sketch=0;strokeColor=#d6b656;fillColor=#fff2cc;" parent="Y9QoRLHYMl9kIcRqaVpS-1" vertex="1">
          <mxGeometry x="440" y="220" width="130" height="60" as="geometry" />
        </mxCell>
        <mxCell id="Y9QoRLHYMl9kIcRqaVpS-17" value="" style="endArrow=classic;html=1;strokeColor=#457B9D;fillColor=#A8DADC;fontColor=#1D3557;entryX=0;entryY=0.5;entryDx=0;entryDy=0;" parent="Y9QoRLHYMl9kIcRqaVpS-1" target="Y9QoRLHYMl9kIcRqaVpS-16" edge="1">
          <mxGeometry width="50" height="50" relative="1" as="geometry">
            <mxPoint x="414" y="250" as="sourcePoint" />
            <mxPoint x="494" y="260" as="targetPoint" />
          </mxGeometry>
        </mxCell>
        <mxCell id="Y9QoRLHYMl9kIcRqaVpS-23" style="edgeStyle=orthogonalEdgeStyle;curved=0;rounded=1;sketch=0;orthogonalLoop=1;jettySize=auto;html=1;exitX=0.5;exitY=1;exitDx=0;exitDy=0;entryX=0;entryY=0;entryDx=0;entryDy=0;strokeColor=#457B9D;fillColor=#A8DADC;fontColor=#1D3557;" parent="Y9QoRLHYMl9kIcRqaVpS-1" source="Y9QoRLHYMl9kIcRqaVpS-20" target="Y9QoRLHYMl9kIcRqaVpS-22" edge="1">
          <mxGeometry relative="1" as="geometry" />
        </mxCell>
        <mxCell id="Y9QoRLHYMl9kIcRqaVpS-20" value="&lt;span style=&quot;color: rgba(0 , 0 , 0 , 0) ; font-family: monospace ; font-size: 0px&quot;&gt;%3CmxGraphModel%3E%3Croot%3E%3CmxCell%20id%3D%220%22%2F%3E%3CmxCell%20id%3D%221%22%20parent%3D%220%22%2F%3E%3CmxCell%20id%3D%222%22%20value%3D%22%E6%9B%B4%E6%96%B0%E8%A1%A8%E7%8A%B6%E6%80%81%E4%B8%BA2%22%20style%3D%22rounded%3D1%3BwhiteSpace%3Dwrap%3Bhtml%3D1%3Bsketch%3D0%3BstrokeColor%3D%23b85450%3BfillColor%3D%23f8cecc%3BgradientColor%3D%23ea6b66%3B%22%20vertex%3D%221%22%20parent%3D%221%22%3E%3CmxGeometry%20x%3D%22393%22%20y%3D%22440%22%20width%3D%22100%22%20height%3D%2240%22%20as%3D%22geometry%22%2F%3E%3C%2FmxCell%3E%3C%2Froot%3E%3C%2FmxGraphModel%3E个梦个ge&lt;/span&gt;更新表状态为3&lt;br&gt;新增成功" style="rounded=1;whiteSpace=wrap;html=1;sketch=0;strokeColor=#b85450;fillColor=#f8cecc;gradientColor=#ea6b66;" parent="Y9QoRLHYMl9kIcRqaVpS-1" vertex="1">
          <mxGeometry x="195" y="500" width="120" height="50" as="geometry" />
        </mxCell>
        <mxCell id="Y9QoRLHYMl9kIcRqaVpS-24" style="edgeStyle=orthogonalEdgeStyle;curved=0;rounded=1;sketch=0;orthogonalLoop=1;jettySize=auto;html=1;exitX=0;exitY=0.5;exitDx=0;exitDy=0;entryX=0;entryY=0;entryDx=0;entryDy=0;strokeColor=#457B9D;fillColor=#A8DADC;fontColor=#1D3557;" parent="Y9QoRLHYMl9kIcRqaVpS-1" source="Y9QoRLHYMl9kIcRqaVpS-21" target="Y9QoRLHYMl9kIcRqaVpS-22" edge="1">
          <mxGeometry relative="1" as="geometry" />
        </mxCell>
        <mxCell id="Y9QoRLHYMl9kIcRqaVpS-21" value="删除表中记录&lt;br&gt;新增失败" style="rounded=1;whiteSpace=wrap;html=1;sketch=0;strokeColor=#b85450;fillColor=#f8cecc;gradientColor=#ea6b66;" parent="Y9QoRLHYMl9kIcRqaVpS-1" vertex="1">
          <mxGeometry x="650" y="490" width="140" height="50" as="geometry" />
        </mxCell>
        <mxCell id="Y9QoRLHYMl9kIcRqaVpS-22" value="结束" style="ellipse;whiteSpace=wrap;html=1;rounded=0;sketch=0;strokeColor=#457B9D;fillColor=#A8DADC;fontColor=#1D3557;" parent="Y9QoRLHYMl9kIcRqaVpS-1" vertex="1">
          <mxGeometry x="428" y="565" width="86" height="40" as="geometry" />
        </mxCell>
        <mxCell id="Y9QoRLHYMl9kIcRqaVpS-26" value="是" style="text;html=1;align=center;verticalAlign=middle;resizable=0;points=[];autosize=1;fontColor=#1D3557;" parent="Y9QoRLHYMl9kIcRqaVpS-1" vertex="1">
          <mxGeometry x="261.25" y="180" width="30" height="20" as="geometry" />
        </mxCell>
        <mxCell id="Y9QoRLHYMl9kIcRqaVpS-31" value="是" style="text;html=1;align=center;verticalAlign=middle;resizable=0;points=[];autosize=1;fontColor=#1D3557;" parent="Y9QoRLHYMl9kIcRqaVpS-1" vertex="1">
          <mxGeometry x="428" y="280" width="30" height="20" as="geometry" />
        </mxCell>
        <mxCell id="Y9QoRLHYMl9kIcRqaVpS-46" style="edgeStyle=orthogonalEdgeStyle;curved=0;rounded=1;sketch=0;orthogonalLoop=1;jettySize=auto;html=1;exitX=0.5;exitY=1;exitDx=0;exitDy=0;entryX=0.5;entryY=0;entryDx=0;entryDy=0;strokeColor=#457B9D;fillColor=#A8DADC;fontColor=#1D3557;" parent="Y9QoRLHYMl9kIcRqaVpS-1" source="Y9QoRLHYMl9kIcRqaVpS-33" target="Y9QoRLHYMl9kIcRqaVpS-38" edge="1">
          <mxGeometry relative="1" as="geometry" />
        </mxCell>
        <mxCell id="Y9QoRLHYMl9kIcRqaVpS-33" value="删除主机" style="rounded=1;whiteSpace=wrap;html=1;sketch=0;strokeColor=#BD7000;fillColor=#f0a30a;fontColor=#ffffff;" parent="Y9QoRLHYMl9kIcRqaVpS-1" vertex="1">
          <mxGeometry x="560" y="310" width="100" height="40" as="geometry" />
        </mxCell>
        <mxCell id="Y9QoRLHYMl9kIcRqaVpS-38" value="更新表状态为1" style="rounded=1;whiteSpace=wrap;html=1;sketch=0;strokeColor=#b85450;fillColor=#f8cecc;gradientColor=#ea6b66;" parent="Y9QoRLHYMl9kIcRqaVpS-1" vertex="1">
          <mxGeometry x="560" y="370" width="100" height="40" as="geometry" />
        </mxCell>
        <mxCell id="Y9QoRLHYMl9kIcRqaVpS-42" value="0-插入表t_service" style="rounded=0;whiteSpace=wrap;html=1;sketch=0;strokeColor=#b85450;fillColor=#f8cecc;gradientColor=#ea6b66;" parent="Y9QoRLHYMl9kIcRqaVpS-1" vertex="1">
          <mxGeometry x="20" y="130" width="100" height="40" as="geometry" />
        </mxCell>
        <mxCell id="Y9QoRLHYMl9kIcRqaVpS-44" style="edgeStyle=orthogonalEdgeStyle;curved=0;rounded=1;sketch=0;orthogonalLoop=1;jettySize=auto;html=1;exitX=1;exitY=0.5;exitDx=0;exitDy=0;strokeColor=#457B9D;fillColor=#A8DADC;fontColor=#1D3557;" parent="Y9QoRLHYMl9kIcRqaVpS-1" source="Y9QoRLHYMl9kIcRqaVpS-43" edge="1">
          <mxGeometry relative="1" as="geometry">
            <mxPoint x="280" y="250" as="targetPoint" />
          </mxGeometry>
        </mxCell>
        <mxCell id="Y9QoRLHYMl9kIcRqaVpS-43" value="更新状态为1" style="rounded=0;whiteSpace=wrap;html=1;sketch=0;strokeColor=#b85450;fillColor=#f8cecc;gradientColor=#ea6b66;" parent="Y9QoRLHYMl9kIcRqaVpS-1" vertex="1">
          <mxGeometry x="130" y="230" width="129.5" height="40" as="geometry" />
        </mxCell>
        <mxCell id="Y9QoRLHYMl9kIcRqaVpS-45" value="更新状态为2" style="rounded=0;whiteSpace=wrap;html=1;sketch=0;strokeColor=#b85450;fillColor=#f8cecc;gradientColor=#ea6b66;" parent="Y9QoRLHYMl9kIcRqaVpS-1" vertex="1">
          <mxGeometry x="131.75" y="320" width="129.5" height="40" as="geometry" />
        </mxCell>
        <mxCell id="Y9QoRLHYMl9kIcRqaVpS-52" value="否" style="text;html=1;align=center;verticalAlign=middle;resizable=0;points=[];autosize=1;fontColor=#1D3557;" parent="Y9QoRLHYMl9kIcRqaVpS-1" vertex="1">
          <mxGeometry x="490" y="130" width="30" height="20" as="geometry" />
        </mxCell>
        <mxCell id="Y9QoRLHYMl9kIcRqaVpS-53" value="否" style="text;html=1;align=center;verticalAlign=middle;resizable=0;points=[];autosize=1;fontColor=#1D3557;" parent="Y9QoRLHYMl9kIcRqaVpS-1" vertex="1">
          <mxGeometry x="570" y="230" width="30" height="20" as="geometry" />
        </mxCell>
        <mxCell id="Y9QoRLHYMl9kIcRqaVpS-56" value="是" style="text;html=1;align=center;verticalAlign=middle;resizable=0;points=[];autosize=1;fontColor=#1D3557;" parent="Y9QoRLHYMl9kIcRqaVpS-1" vertex="1">
          <mxGeometry x="229.5" y="470" width="30" height="20" as="geometry" />
        </mxCell>
        <mxCell id="Y9QoRLHYMl9kIcRqaVpS-59" value="" style="rounded=0;whiteSpace=wrap;html=1;sketch=0;strokeColor=#666666;fillColor=#f5f5f5;gradientColor=#b3b3b3;" parent="Y9QoRLHYMl9kIcRqaVpS-1" vertex="1">
          <mxGeometry x="378" y="370" width="130" height="120" as="geometry" />
        </mxCell>
        <mxCell id="Y9QoRLHYMl9kIcRqaVpS-60" style="edgeStyle=orthogonalEdgeStyle;curved=0;rounded=1;sketch=0;orthogonalLoop=1;jettySize=auto;html=1;exitX=0.5;exitY=1;exitDx=0;exitDy=0;entryX=0.5;entryY=0;entryDx=0;entryDy=0;strokeColor=#457B9D;fillColor=#A8DADC;fontColor=#1D3557;" parent="Y9QoRLHYMl9kIcRqaVpS-1" source="Y9QoRLHYMl9kIcRqaVpS-61" target="Y9QoRLHYMl9kIcRqaVpS-62" edge="1">
          <mxGeometry relative="1" as="geometry" />
        </mxCell>
        <mxCell id="Y9QoRLHYMl9kIcRqaVpS-61" value="删除虚拟池" style="rounded=1;whiteSpace=wrap;html=1;sketch=0;strokeColor=#BD7000;fillColor=#f0a30a;fontColor=#ffffff;" parent="Y9QoRLHYMl9kIcRqaVpS-1" vertex="1">
          <mxGeometry x="393" y="380" width="100" height="40" as="geometry" />
        </mxCell>
        <mxCell id="Y9QoRLHYMl9kIcRqaVpS-62" value="更新表状态为2" style="rounded=1;whiteSpace=wrap;html=1;sketch=0;strokeColor=#b85450;fillColor=#f8cecc;gradientColor=#ea6b66;" parent="Y9QoRLHYMl9kIcRqaVpS-1" vertex="1">
          <mxGeometry x="393" y="440" width="100" height="40" as="geometry" />
        </mxCell>
        <mxCell id="Y9QoRLHYMl9kIcRqaVpS-63" value="" style="endArrow=classic;html=1;strokeColor=#457B9D;fillColor=#A8DADC;fontColor=#1D3557;exitX=0.5;exitY=1;exitDx=0;exitDy=0;entryX=0.5;entryY=0;entryDx=0;entryDy=0;edgeStyle=orthogonalEdgeStyle;" parent="Y9QoRLHYMl9kIcRqaVpS-1" source="Y9QoRLHYMl9kIcRqaVpS-7" target="Y9QoRLHYMl9kIcRqaVpS-14" edge="1">
          <mxGeometry width="50" height="50" relative="1" as="geometry">
            <mxPoint x="330" y="410" as="sourcePoint" />
            <mxPoint x="370" y="440" as="targetPoint" />
          </mxGeometry>
        </mxCell>
        <mxCell id="Y9QoRLHYMl9kIcRqaVpS-65" value="" style="endArrow=classic;html=1;strokeColor=#457B9D;fillColor=#A8DADC;fontColor=#1D3557;" parent="Y9QoRLHYMl9kIcRqaVpS-1" source="Y9QoRLHYMl9kIcRqaVpS-14" edge="1">
          <mxGeometry width="50" height="50" relative="1" as="geometry">
            <mxPoint x="320" y="470" as="sourcePoint" />
            <mxPoint x="380" y="420" as="targetPoint" />
          </mxGeometry>
        </mxCell>
        <mxCell id="Y9QoRLHYMl9kIcRqaVpS-66" value="" style="endArrow=classic;html=1;strokeColor=#457B9D;fillColor=#A8DADC;fontColor=#1D3557;exitX=0.5;exitY=1;exitDx=0;exitDy=0;entryX=0.326;entryY=-0.022;entryDx=0;entryDy=0;entryPerimeter=0;edgeStyle=orthogonalEdgeStyle;" parent="Y9QoRLHYMl9kIcRqaVpS-1" source="Y9QoRLHYMl9kIcRqaVpS-59" target="Y9QoRLHYMl9kIcRqaVpS-57" edge="1">
          <mxGeometry width="50" height="50" relative="1" as="geometry">
            <mxPoint x="530" y="530" as="sourcePoint" />
            <mxPoint x="580" y="480" as="targetPoint" />
            <Array as="points">
              <mxPoint x="443" y="500" />
              <mxPoint x="529" y="500" />
              <mxPoint x="529" y="290" />
              <mxPoint x="592" y="290" />
            </Array>
          </mxGeometry>
        </mxCell>
        <mxCell id="Y9QoRLHYMl9kIcRqaVpS-69" value="" style="endArrow=classic;html=1;strokeColor=#457B9D;fillColor=#A8DADC;fontColor=#1D3557;exitX=0.609;exitY=1.012;exitDx=0;exitDy=0;exitPerimeter=0;entryX=0.25;entryY=0;entryDx=0;entryDy=0;edgeStyle=orthogonalEdgeStyle;" parent="Y9QoRLHYMl9kIcRqaVpS-1" source="Y9QoRLHYMl9kIcRqaVpS-57" target="Y9QoRLHYMl9kIcRqaVpS-21" edge="1">
          <mxGeometry width="50" height="50" relative="1" as="geometry">
            <mxPoint x="630" y="410" as="sourcePoint" />
            <mxPoint x="670" y="480" as="targetPoint" />
          </mxGeometry>
        </mxCell>
      </root>
    </mxGraphModel>
  </diagram>
  <diagram id="_SGQD_y5icIGilB0U0md" name="Page-1">
    <mxGraphModel dx="1038" dy="580" grid="1" gridSize="10" guides="1" tooltips="1" connect="1" arrows="1" fold="1" page="1" pageScale="1" pageWidth="827" pageHeight="1169" background="#F1FAEE" math="0" shadow="0">
      <root>
        <mxCell id="0" />
        <mxCell id="1" parent="0" />
        <mxCell id="Za5c8sp0ydx1lgBo9YmZ-1" value="&lt;div style=&quot;box-sizing: border-box ; width: 100% ; background: #e4e4e4 ; padding: 2px&quot;&gt;系统表 t_system&lt;/div&gt;&lt;table style=&quot;width: 100% ; font-size: 1em&quot; cellpadding=&quot;2&quot; cellspacing=&quot;0&quot;&gt;&lt;tbody&gt;&lt;tr&gt;&lt;td&gt;PK&lt;/td&gt;&lt;td&gt;id:int(11)&lt;/td&gt;&lt;/tr&gt;&lt;tr&gt;&lt;td&gt;FK1&lt;/td&gt;&lt;td&gt;sys_name&lt;/td&gt;&lt;/tr&gt;&lt;tr&gt;&lt;td&gt;&lt;/td&gt;&lt;td&gt;sys_desc&lt;br&gt;supplier&lt;br&gt;sys_principle&lt;br&gt;pb_principle&lt;br&gt;&lt;br&gt;&lt;br&gt;&lt;/td&gt;&lt;/tr&gt;&lt;/tbody&gt;&lt;/table&gt;" style="verticalAlign=top;align=left;overflow=fill;html=1;fillColor=#A8DADC;strokeColor=#457B9D;fontColor=#1D3557;" parent="1" vertex="1">
          <mxGeometry x="140" y="280" width="180" height="140" as="geometry" />
        </mxCell>
        <mxCell id="Za5c8sp0ydx1lgBo9YmZ-2" value="&lt;div style=&quot;box-sizing: border-box ; width: 100% ; background: #e4e4e4 ; padding: 2px&quot;&gt;区域表 t_area&lt;/div&gt;&lt;table style=&quot;width: 100% ; font-size: 1em&quot; cellpadding=&quot;2&quot; cellspacing=&quot;0&quot;&gt;&lt;tbody&gt;&lt;tr&gt;&lt;td&gt;PK&lt;/td&gt;&lt;td&gt;id:int(11)&lt;/td&gt;&lt;/tr&gt;&lt;tr&gt;&lt;td&gt;&lt;br&gt;&lt;/td&gt;&lt;td&gt;name varchar(60)&lt;/td&gt;&lt;/tr&gt;&lt;tr&gt;&lt;td&gt;&lt;/td&gt;&lt;td&gt;&lt;br&gt;&lt;br&gt;&lt;br&gt;&lt;/td&gt;&lt;/tr&gt;&lt;/tbody&gt;&lt;/table&gt;" style="verticalAlign=top;align=left;overflow=fill;html=1;fillColor=#A8DADC;strokeColor=#457B9D;fontColor=#1D3557;" parent="1" vertex="1">
          <mxGeometry x="370" y="280" width="180" height="140" as="geometry" />
        </mxCell>
        <mxCell id="Za5c8sp0ydx1lgBo9YmZ-3" value="1" style="endArrow=open;html=1;endSize=12;startArrow=diamondThin;startSize=14;startFill=1;edgeStyle=orthogonalEdgeStyle;align=left;verticalAlign=bottom;strokeColor=#457B9D;fillColor=#A8DADC;fontColor=#1D3557;entryX=-0.004;entryY=0.196;entryDx=0;entryDy=0;entryPerimeter=0;exitX=0.556;exitY=0.643;exitDx=0;exitDy=0;exitPerimeter=0;" parent="1" source="Za5c8sp0ydx1lgBo9YmZ-4" target="Za5c8sp0ydx1lgBo9YmZ-2" edge="1">
          <mxGeometry x="-1" y="3" relative="1" as="geometry">
            <mxPoint x="230" y="370" as="sourcePoint" />
            <mxPoint x="390" y="370" as="targetPoint" />
            <Array as="points">
              <mxPoint x="345" y="520" />
              <mxPoint x="345" y="307" />
            </Array>
          </mxGeometry>
        </mxCell>
        <mxCell id="Za5c8sp0ydx1lgBo9YmZ-4" value="&lt;div style=&quot;box-sizing: border-box ; width: 100% ; background: #e4e4e4 ; padding: 2px&quot;&gt;应用表 t_application&lt;/div&gt;&lt;table style=&quot;width: 100% ; font-size: 1em&quot; cellpadding=&quot;2&quot; cellspacing=&quot;0&quot;&gt;&lt;tbody&gt;&lt;tr&gt;&lt;td&gt;PK&lt;/td&gt;&lt;td&gt;id:int(11)&lt;/td&gt;&lt;/tr&gt;&lt;tr&gt;&lt;td&gt;&lt;br&gt;&lt;/td&gt;&lt;td&gt;sys_id&lt;br&gt;app_name&lt;/td&gt;&lt;/tr&gt;&lt;tr&gt;&lt;td&gt;&lt;br&gt;&lt;/td&gt;&lt;td&gt;app_desc&lt;br&gt;principle&lt;br&gt;area_id&lt;br&gt;ip_range&lt;br&gt;&lt;br&gt;&lt;br&gt;&lt;/td&gt;&lt;/tr&gt;&lt;/tbody&gt;&lt;/table&gt;" style="verticalAlign=top;align=left;overflow=fill;html=1;fillColor=#A8DADC;strokeColor=#457B9D;fontColor=#1D3557;" parent="1" vertex="1">
          <mxGeometry x="200" y="510" width="180" height="140" as="geometry" />
        </mxCell>
        <mxCell id="Za5c8sp0ydx1lgBo9YmZ-6" value="1" style="endArrow=open;html=1;endSize=12;startArrow=diamondThin;startSize=14;startFill=1;edgeStyle=orthogonalEdgeStyle;align=left;verticalAlign=bottom;strokeColor=#457B9D;fillColor=#A8DADC;fontColor=#1D3557;entryX=0;entryY=0.25;entryDx=0;entryDy=0;exitX=-0.007;exitY=0.341;exitDx=0;exitDy=0;exitPerimeter=0;" parent="1" source="Za5c8sp0ydx1lgBo9YmZ-4" target="Za5c8sp0ydx1lgBo9YmZ-1" edge="1">
          <mxGeometry x="-0.9452" y="-10" relative="1" as="geometry">
            <mxPoint x="230" y="570" as="sourcePoint" />
            <mxPoint x="300" y="540" as="targetPoint" />
            <Array as="points">
              <mxPoint x="189" y="563" />
              <mxPoint x="130" y="563" />
              <mxPoint x="130" y="315" />
            </Array>
            <mxPoint as="offset" />
          </mxGeometry>
        </mxCell>
        <mxCell id="Za5c8sp0ydx1lgBo9YmZ-7" value="&lt;div style=&quot;box-sizing: border-box ; width: 100% ; background: #e4e4e4 ; padding: 2px&quot;&gt;服务表 t_service&lt;/div&gt;&lt;table style=&quot;width: 100% ; font-size: 1em&quot; cellpadding=&quot;2&quot; cellspacing=&quot;0&quot;&gt;&lt;tbody&gt;&lt;tr&gt;&lt;td&gt;PK&lt;/td&gt;&lt;td&gt;id:int(11)&lt;/td&gt;&lt;/tr&gt;&lt;tr&gt;&lt;td&gt;&lt;br&gt;&lt;/td&gt;&lt;td&gt;app_id&lt;/td&gt;&lt;/tr&gt;&lt;tr&gt;&lt;td&gt;&lt;br&gt;&lt;/td&gt;&lt;td&gt;name&lt;br&gt;description&lt;br&gt;status&lt;br&gt;type&lt;br&gt;derection&amp;nbsp;&lt;br&gt;visibility&lt;br&gt;ip&lt;br&gt;port&lt;br&gt;enable_virtual&lt;br&gt;virtual_ip&lt;br&gt;check_method&lt;br&gt;authorized&lt;br&gt;enable_pwhite&lt;br&gt;pwhite&lt;br&gt;reject_action&lt;br&gt;new_conn_threshhold&lt;br&gt;curr_conn_threshhold&lt;br&gt;enable_authorize_app&lt;br&gt;&lt;br&gt;&lt;br&gt;&lt;br&gt;&lt;/td&gt;&lt;/tr&gt;&lt;/tbody&gt;&lt;/table&gt;" style="verticalAlign=top;align=left;overflow=fill;html=1;fillColor=#A8DADC;strokeColor=#457B9D;fontColor=#1D3557;" parent="1" vertex="1">
          <mxGeometry x="460" y="515" width="210" height="355" as="geometry" />
        </mxCell>
      </root>
    </mxGraphModel>
  </diagram>
  <diagram id="wRNlPobcrz-28535DZWn" name="Page-5">
    <mxGraphModel dx="1038" dy="580" grid="1" gridSize="10" guides="1" tooltips="1" connect="1" arrows="1" fold="1" page="1" pageScale="1" pageWidth="827" pageHeight="1169" math="0" shadow="0">
      <root>
        <mxCell id="9BJVMTzvQNOWdNkPc943-0" />
        <mxCell id="9BJVMTzvQNOWdNkPc943-1" parent="9BJVMTzvQNOWdNkPc943-0" />
        <mxCell id="9BJVMTzvQNOWdNkPc943-2" value="" style="edgeStyle=orthogonalEdgeStyle;rounded=1;sketch=0;orthogonalLoop=1;jettySize=auto;html=1;strokeColor=#457B9D;fillColor=#A8DADC;fontColor=#1D3557;" parent="9BJVMTzvQNOWdNkPc943-1" source="9BJVMTzvQNOWdNkPc943-3" target="9BJVMTzvQNOWdNkPc943-4" edge="1">
          <mxGeometry relative="1" as="geometry" />
        </mxCell>
        <mxCell id="9BJVMTzvQNOWdNkPc943-3" value="区域" style="rounded=1;whiteSpace=wrap;html=1;sketch=0;strokeColor=#006EAF;fillColor=#1ba1e2;fontColor=#ffffff;" parent="9BJVMTzvQNOWdNkPc943-1" vertex="1">
          <mxGeometry x="170" y="300" width="120" height="60" as="geometry" />
        </mxCell>
        <mxCell id="9BJVMTzvQNOWdNkPc943-4" value="应用2" style="rounded=1;whiteSpace=wrap;html=1;sketch=0;strokeColor=#457B9D;fillColor=#A8DADC;fontColor=#1D3557;" parent="9BJVMTzvQNOWdNkPc943-1" vertex="1">
          <mxGeometry x="360" y="305" width="120" height="50" as="geometry" />
        </mxCell>
        <mxCell id="9BJVMTzvQNOWdNkPc943-5" value="应用1" style="rounded=1;whiteSpace=wrap;html=1;sketch=0;strokeColor=#457B9D;fillColor=#A8DADC;fontColor=#1D3557;" parent="9BJVMTzvQNOWdNkPc943-1" vertex="1">
          <mxGeometry x="360" y="230" width="120" height="50" as="geometry" />
        </mxCell>
        <mxCell id="9BJVMTzvQNOWdNkPc943-6" value="应用n" style="rounded=1;whiteSpace=wrap;html=1;sketch=0;strokeColor=#457B9D;fillColor=#A8DADC;fontColor=#1D3557;" parent="9BJVMTzvQNOWdNkPc943-1" vertex="1">
          <mxGeometry x="360" y="390" width="120" height="50" as="geometry" />
        </mxCell>
        <mxCell id="9BJVMTzvQNOWdNkPc943-7" value="" style="endArrow=classic;html=1;strokeColor=#457B9D;fillColor=#A8DADC;fontColor=#1D3557;entryX=0;entryY=1;entryDx=0;entryDy=0;exitX=1;exitY=0.5;exitDx=0;exitDy=0;" parent="9BJVMTzvQNOWdNkPc943-1" source="9BJVMTzvQNOWdNkPc943-3" target="9BJVMTzvQNOWdNkPc943-5" edge="1">
          <mxGeometry width="50" height="50" relative="1" as="geometry">
            <mxPoint x="300" y="330" as="sourcePoint" />
            <mxPoint x="350" y="300" as="targetPoint" />
          </mxGeometry>
        </mxCell>
        <mxCell id="9BJVMTzvQNOWdNkPc943-8" value="" style="endArrow=classic;html=1;strokeColor=#457B9D;fillColor=#A8DADC;fontColor=#1D3557;entryX=0;entryY=0.25;entryDx=0;entryDy=0;" parent="9BJVMTzvQNOWdNkPc943-1" target="9BJVMTzvQNOWdNkPc943-6" edge="1">
          <mxGeometry width="50" height="50" relative="1" as="geometry">
            <mxPoint x="290" y="330" as="sourcePoint" />
            <mxPoint x="370" y="320" as="targetPoint" />
          </mxGeometry>
        </mxCell>
        <mxCell id="9BJVMTzvQNOWdNkPc943-9" value="&lt;b&gt;...&lt;/b&gt;" style="text;html=1;align=center;verticalAlign=middle;resizable=0;points=[];autosize=1;fontColor=#1D3557;" parent="9BJVMTzvQNOWdNkPc943-1" vertex="1">
          <mxGeometry x="395" y="360" width="30" height="20" as="geometry" />
        </mxCell>
      </root>
    </mxGraphModel>
  </diagram>
</mxfile>
